<?xml version="1.0" encoding="utf-8"?>
<!-- Generator: Adobe Illustrator 25.1.0, SVG Export Plug-In . SVG Version: 6.00 Build 0)  -->
<svg version="1.1" id="レイヤー_1" xmlns="http://www.w3.org/2000/svg" xmlns:xlink="http://www.w3.org/1999/xlink" x="0px"
	 y="0px" viewBox="0 0 134.37 17.92" style="enable-background:new 0 0 134.37 17.92;" xml:space="preserve">
<style type="text/css">
	.st0{fill:#FFFFFF;}
</style>
<g>
	<path class="st0" d="M0,11.61l0.99-1.02l1.65,1.68v2.39l-1.32,1.32L0,14.67V11.61z M8.15,17.82l1.32-1.32l-1.32-1.32H3.16
		L1.83,16.5l1.32,1.32H8.15z M10.28,8.43l0.99-1.02V0L8.63,2.67v4.08L10.28,8.43z M11.28,10.42l-0.99-0.99l-1.65,1.66v3.59
		l1.32,1.32l1.32-1.32V10.42z"/>
	<path class="st0" d="M20.41,7.41V0.5l2.65,2.61v3.62l-1.65,1.7L20.41,7.41z M23.06,11.08v3.6l-2.65,2.65v-6.91l0.99-0.99
		L23.06,11.08z M31.21,0.01l-2.65,2.65h-4.99l-2.65-2.65H31.21z M31.21,17.82H20.92l2.65-2.65h4.99L31.21,17.82z M29.04,6.75v-3.6
		l2.65-2.61v6.88L30.7,8.43L29.04,6.75z M31.69,10.42v6.88l-2.65-2.65v-3.58l1.65-1.65L31.69,10.42z"/>
	<path class="st0" d="M40.83,7.41V0.5l2.65,2.61v3.62l-1.65,1.7L40.83,7.41z M43.48,11.08v3.59l-2.65,2.65v-6.9l0.99-0.99
		L43.48,11.08z M41.33,17.82l2.65-2.65h4.99l1.32,1.32l-1.32,1.32H41.33z M50.3,1.32l-1.32,1.34h-4.99l-2.65-2.65h7.64L50.3,1.32z
		 M49.3,7.59l1.32,1.32l-1.32,1.32h-5.65l-1.32-1.32l1.32-1.32H49.3z M52.1,7.41l-0.99,1.02l-1.65-1.68V3.16l1.32-1.32l1.32,1.32
		V7.41z M52.1,14.67l-1.32,1.32l-1.32-1.32v-3.59l1.65-1.66l0.99,0.99V14.67z"/>
	<path class="st0" d="M61.24,7.41V0.5l2.65,2.61v3.62l-1.65,1.7L61.24,7.41z M63.89,11.08v4.1l-2.65,2.65v-7.41l0.99-0.99
		L63.89,11.08z M70.71,1.32l-1.32,1.34H64.4l-2.65-2.65h7.64L70.71,1.32z M69.72,7.59l1.32,1.32l-1.32,1.32h-5.65l-1.32-1.32
		l1.32-1.32H69.72z M72.52,7.41l-0.99,1.02l-1.65-1.68V3.16l1.32-1.32l1.32,1.32V7.41z"/>
	<path class="st0" d="M81.66,7.41V0l2.65,2.67v4.08l-1.65,1.68L81.66,7.41z M84.3,11.08v3.6l-2.65,2.65v-6.91l0.99-0.99L84.3,11.08z
		 M92.93,17.82H82.17l2.65-2.65h5.47L92.93,17.82z"/>
	<path class="st0" d="M102.07,7.41V0.5l2.65,2.61v3.62l-1.65,1.7L102.07,7.41z M104.72,11.08v4.1l-2.65,2.65v-7.41l0.99-0.99
		L104.72,11.08z M112.86,0.01l-2.65,2.65h-4.99l-2.65-2.65H112.86z M110.55,7.59l1.32,1.32l-1.32,1.32h-5.65l-1.32-1.32l1.32-1.32
		H110.55z M110.7,6.75v-3.6l2.65-2.61v6.88l-0.99,1.02L110.7,6.75z M113.35,10.42v7.41l-2.65-2.65v-4.1l1.65-1.66L113.35,10.42z"/>
	<path class="st0" d="M134.37,1.32l-1.35,1.34h-9.8l-1.32-1.34l1.32-1.31h9.8L134.37,1.32z M129.46,7.41l-0.99,1.02l-1.65-1.69V4.7
		l1.32-1.33l1.32,1.33V7.41z M129.46,16.6l-1.32,1.32l-1.32-1.32v-5.52l1.65-1.65l0.99,0.99V16.6z"/>
</g>
</svg>
